<svg width="18" height="14" viewBox="0 0 18 14" fill="none" xmlns="http://www.w3.org/2000/svg">
<path fill-rule="evenodd" clip-rule="evenodd" d="M2.94533 0.976745C2.69358 0.976745 2.45214 1.0625 2.27413 1.21515C2.09612 1.36779 1.99611 1.57482 1.99611 1.7907V7.65117C1.99611 7.86704 2.09612 8.07407 2.27413 8.22672C2.45214 8.37937 2.69358 8.46512 2.94533 8.46512H3.7047C4.01924 8.46512 4.27423 8.68377 4.27423 8.9535C4.27423 9.22322 4.01924 9.44187 3.7047 9.44187H2.94533C2.39148 9.44187 1.86032 9.25321 1.4687 8.91738C1.07707 8.58156 0.857056 8.12609 0.857056 7.65117V1.7907C0.857056 1.31578 1.07707 0.860305 1.4687 0.524484C1.86032 0.188662 2.39148 0 2.94533 0H9.77968C10.3335 0 10.8647 0.188662 11.2563 0.524484C11.6479 0.860305 11.868 1.31578 11.868 1.7907V2.44186C11.868 2.71158 11.613 2.93023 11.2984 2.93023C10.9839 2.93023 10.7289 2.71158 10.7289 2.44186V1.7907C10.7289 1.57483 10.6289 1.36779 10.4509 1.21515C10.2729 1.0625 10.0314 0.976745 9.77968 0.976745H2.94533ZM8.26092 5.53488C7.73668 5.53488 7.31171 5.8993 7.31171 6.34883V12.2093C7.31171 12.6588 7.73668 13.0233 8.26092 13.0233H15.0953C15.6195 13.0233 16.0445 12.6588 16.0445 12.2093V6.34883C16.0445 5.8993 15.6195 5.53488 15.0953 5.53488H8.26092ZM6.17265 6.34883C6.17265 5.35986 7.1076 4.55813 8.26092 4.55813H15.0953C16.2486 4.55813 17.1835 5.35986 17.1835 6.34883V12.2093C17.1835 13.1983 16.2486 14 15.0953 14H8.26092C7.1076 14 6.17265 13.1983 6.17265 12.2093V6.34883Z" fill="#FC527E"/>
</svg>
