<svg width="18" height="18" viewBox="0 0 18 18" fill="none" xmlns="http://www.w3.org/2000/svg">
<g clip-path="url(#clip0_38_33)">
<path d="M5.99999 6.1875C6.68311 4.49219 8.99999 1.5 8.99999 1.5C8.99999 1.5 11.3169 4.49219 12 6.1875C13.1047 8.92918 11.25 13.5 11.25 13.5H6.74999C6.74999 13.5 4.89523 8.92918 5.99999 6.1875Z" stroke="#FC527E" stroke-width="1"/>
<path d="M11.25 13.5H15L12.375 9" stroke="#FC527E" stroke-width="1"/>
<path d="M6.75 13.5H3L5.625 9" stroke="#FC527E" stroke-width="1"/>
<path d="M7.51597 14.8393C7.71222 14.2043 8.0096 13.5 8.0096 13.5H9.98412C9.98412 13.5 10.2417 14.2204 10.4777 14.8393C10.7138 15.4582 9.00003 16.875 9.00003 16.875C9.00003 16.875 7.31973 15.4743 7.51597 14.8393Z" stroke="#FC527E" stroke-width="1"/>
<path d="M6 6C6 6 7.125 6.75 9 6.75C10.875 6.75 12 6 12 6" stroke="#FC527E" stroke-width="1"/>
</g>
<defs>
<clipPath id="clip0_38_33">
<rect width="18" height="18" fill="white"/>
</clipPath>
</defs>
</svg>
